# Blender v2.80 (sub 75) OBJ File: 'StarDestroyer.blend'
# www.blender.org
mtllib StarDestroyer.mtl
o Cube_Cube.001
v 2.730074 -0.237745 -1.571894
v 2.730074 0.195209 -1.573343
v 0.175611 0.492346 -2.296126
v 0.175611 -0.539714 -2.292672
v 0.045197 0.084951 4.923071
v 0.045197 -0.083998 4.923736
v 0.845161 0.279203 0.713253
v 0.845161 0.605161 0.735606
v 0.845161 0.434069 -1.566974
v 0.845161 0.760026 -1.544622
v 0.842783 0.302099 -1.988226
v 0.842783 0.628707 -1.996868
v 0.145950 0.753438 -1.223815
v 0.145950 1.330752 -1.222421
v 0.145950 0.752471 -1.512641
v 0.145950 1.330752 -1.511248
v 0.601372 1.280193 -1.189450
v 0.601372 1.645455 -1.189450
v 0.601372 1.280193 -1.545532
v 0.601372 1.645455 -1.545532
v 0.351285 1.781574 -1.532043
v 0.351285 1.941954 -1.371663
v 0.394684 1.929746 -1.415062
v 0.431475 1.894980 -1.451853
v 0.456059 1.842949 -1.476437
v 0.464691 1.781574 -1.485069
v 0.456059 1.720199 -1.476437
v 0.431475 1.668168 -1.451853
v 0.394684 1.633402 -1.415062
v 0.412660 1.929746 -1.371663
v 0.464691 1.894980 -1.371663
v 0.499457 1.842949 -1.371663
v 0.511666 1.781574 -1.371663
v 0.499457 1.720199 -1.371663
v 0.464691 1.668168 -1.371663
v 0.412660 1.633402 -1.371663
v 0.351285 1.621194 -1.371663
v 0.394684 1.929746 -1.328265
v 0.431475 1.894980 -1.291473
v 0.456059 1.842949 -1.266890
v 0.464691 1.781574 -1.258257
v 0.456059 1.720199 -1.266890
v 0.431475 1.668168 -1.291473
v 0.394684 1.633402 -1.328265
v 0.351285 1.929746 -1.310288
v 0.351285 1.894980 -1.258257
v 0.351285 1.842949 -1.223491
v 0.351285 1.781574 -1.211283
v 0.351285 1.720199 -1.223491
v 0.351285 1.668168 -1.258257
v 0.351285 1.633402 -1.310288
v 0.307887 1.929746 -1.328265
v 0.271095 1.894980 -1.291473
v 0.246512 1.842949 -1.266890
v 0.237880 1.781574 -1.258257
v 0.246512 1.720199 -1.266890
v 0.271095 1.668168 -1.291473
v 0.307887 1.633402 -1.328265
v 0.289911 1.929746 -1.371663
v 0.237880 1.894980 -1.371663
v 0.203113 1.842949 -1.371663
v 0.190905 1.781574 -1.371663
v 0.203113 1.720199 -1.371663
v 0.237880 1.668168 -1.371663
v 0.289911 1.633402 -1.371663
v 0.307887 1.929746 -1.415062
v 0.271095 1.894980 -1.451853
v 0.246512 1.842949 -1.476437
v 0.237880 1.781574 -1.485069
v 0.246512 1.720199 -1.476437
v 0.271095 1.668168 -1.451853
v 0.307887 1.633402 -1.415062
v 0.351285 1.929746 -1.433038
v 0.351285 1.894980 -1.485069
v 0.351285 1.842949 -1.519835
v 0.351285 1.720199 -1.519835
v 0.351285 1.668168 -1.485069
v 0.351285 1.633402 -1.433038
v 0.000000 0.906725 -1.527482
v 0.000000 0.434069 -1.566974
v 0.000000 0.768266 0.752691
v 0.000000 0.279203 0.713253
v 0.000000 -0.543704 -1.570870
v -2.730074 -0.237745 -1.571894
v 0.000000 0.664475 -1.574914
v -2.730074 0.195209 -1.573343
v -0.175611 0.492346 -2.296126
v -0.175611 -0.539714 -2.292672
v -0.045197 0.084951 4.923071
v -0.045197 -0.083998 4.923736
v 0.000000 0.492346 -2.296126
v 0.000000 -0.539714 -2.292672
v 0.000000 0.084951 4.923071
v 0.000000 -0.083998 4.923736
v -0.845161 0.279203 0.713253
v -0.845161 0.605161 0.735606
v -0.845161 0.434069 -1.566974
v -0.845161 0.760026 -1.544622
v 0.000000 0.776370 -1.993708
v 0.000000 0.302099 -1.988226
v -0.842783 0.302099 -1.988226
v -0.842783 0.628707 -1.996868
v 0.000000 0.753438 -1.223815
v 0.000000 1.330752 -1.222421
v 0.000000 0.752471 -1.512641
v 0.000000 1.330752 -1.511248
v -0.145950 0.753438 -1.223815
v -0.145950 1.330752 -1.222421
v -0.145950 0.752471 -1.512641
v -0.145950 1.330752 -1.511248
v 0.000000 1.216525 -1.153553
v 0.000000 1.687901 -1.153553
v 0.000000 1.216525 -1.581429
v 0.000000 1.687901 -1.581429
v -0.601372 1.280193 -1.189450
v -0.601372 1.645455 -1.189450
v -0.601372 1.280193 -1.545532
v -0.601372 1.645455 -1.545532
v -0.351285 1.781574 -1.532043
v -0.351285 1.941954 -1.371663
v -0.394684 1.929746 -1.415062
v -0.431475 1.894980 -1.451853
v -0.456059 1.842949 -1.476437
v -0.464691 1.781574 -1.485069
v -0.456059 1.720199 -1.476437
v -0.431475 1.668168 -1.451853
v -0.394684 1.633402 -1.415062
v -0.412660 1.929746 -1.371663
v -0.464691 1.894980 -1.371663
v -0.499457 1.842949 -1.371663
v -0.511666 1.781574 -1.371663
v -0.499457 1.720199 -1.371663
v -0.464691 1.668168 -1.371663
v -0.412660 1.633402 -1.371663
v -0.351285 1.621194 -1.371663
v -0.394684 1.929746 -1.328265
v -0.431475 1.894980 -1.291473
v -0.456059 1.842949 -1.266890
v -0.464691 1.781574 -1.258257
v -0.456059 1.720199 -1.266890
v -0.431475 1.668168 -1.291473
v -0.394684 1.633402 -1.328265
v -0.351285 1.929746 -1.310288
v -0.351285 1.894980 -1.258257
v -0.351285 1.842949 -1.223491
v -0.351285 1.781574 -1.211283
v -0.351285 1.720199 -1.223491
v -0.351285 1.668168 -1.258257
v -0.351285 1.633402 -1.310288
v -0.307887 1.929746 -1.328265
v -0.271095 1.894980 -1.291473
v -0.246512 1.842949 -1.266890
v -0.237880 1.781574 -1.258257
v -0.246512 1.720199 -1.266890
v -0.271095 1.668168 -1.291473
v -0.307887 1.633402 -1.328265
v -0.289911 1.929746 -1.371663
v -0.237880 1.894980 -1.371663
v -0.203113 1.842949 -1.371663
v -0.190905 1.781574 -1.371663
v -0.203113 1.720199 -1.371663
v -0.237880 1.668168 -1.371663
v -0.289911 1.633402 -1.371663
v -0.307887 1.929746 -1.415062
v -0.271095 1.894980 -1.451853
v -0.246512 1.842949 -1.476437
v -0.237880 1.781574 -1.485069
v -0.246512 1.720199 -1.476437
v -0.271095 1.668168 -1.451853
v -0.307887 1.633402 -1.415062
v -0.351285 1.929746 -1.433038
v -0.351285 1.894980 -1.485069
v -0.351285 1.842949 -1.519835
v -0.351285 1.720199 -1.519835
v -0.351285 1.668168 -1.485069
v -0.351285 1.633402 -1.433038
vt 0.000000 0.000000
vt 0.000000 0.000000
vt 0.000000 0.000000
vt 0.000000 0.000000
vt 0.000000 0.000000
vt 0.000000 0.000000
vt 0.000000 0.000000
vt 0.000000 0.000000
vt 0.000000 0.000000
vt 0.000000 0.000000
vt 0.000000 0.000000
vt 0.000000 0.000000
vt 0.000000 0.000000
vt 0.000000 0.000000
vt 0.000000 0.000000
vt 0.000000 0.000000
vt 0.000000 0.000000
vt 0.000000 0.000000
vt 0.000000 0.000000
vt 0.000000 0.000000
vt 0.000000 0.000000
vt 0.000000 0.000000
vt 0.000000 0.000000
vt 0.000000 0.000000
vt 0.000000 0.000000
vt 0.000000 0.000000
vt 0.000000 0.000000
vt 0.000000 0.000000
vt 0.000000 0.000000
vt 0.000000 0.000000
vt 0.000000 0.000000
vt 0.000000 0.000000
vt 0.000000 0.000000
vt 0.000000 0.000000
vt 0.000000 0.000000
vt 0.000000 0.000000
vt 0.000000 0.000000
vt 0.000000 0.000000
vt 0.000000 0.000000
vt 0.750000 0.125000
vt 0.750000 0.250000
vt 0.625000 0.250000
vt 0.625000 0.125000
vt 0.750000 0.375000
vt 0.750000 0.500000
vt 0.625000 0.500000
vt 0.625000 0.375000
vt 0.750000 0.625000
vt 0.750000 0.750000
vt 0.625000 0.750000
vt 0.625000 0.625000
vt 0.750000 0.875000
vt 0.687500 1.000000
vt 0.625000 0.875000
vt 0.687500 0.000000
vt 0.562500 0.000000
vt 0.500000 0.125000
vt 0.500000 0.375000
vt 0.500000 0.250000
vt 0.500000 0.625000
vt 0.500000 0.500000
vt 0.500000 0.875000
vt 0.500000 0.750000
vt 0.562500 1.000000
vt 0.375000 0.625000
vt 0.375000 0.500000
vt 0.375000 0.875000
vt 0.375000 0.750000
vt 0.375000 0.250000
vt 0.375000 0.125000
vt 0.375000 0.375000
vt 0.437500 1.000000
vt 0.437500 0.000000
vt 0.250000 0.250000
vt 0.250000 0.125000
vt 0.250000 0.500000
vt 0.250000 0.375000
vt 0.250000 0.750000
vt 0.250000 0.625000
vt 0.312500 1.000000
vt 0.250000 0.875000
vt 0.312500 0.000000
vt 0.125000 0.750000
vt 0.125000 0.625000
vt 0.187500 1.000000
vt 0.125000 0.875000
vt 0.187500 0.000000
vt 0.125000 0.125000
vt 0.125000 0.375000
vt 0.125000 0.250000
vt 0.125000 0.500000
vt 0.062500 0.000000
vt 0.000000 0.125000
vt 0.000000 0.375000
vt 0.000000 0.250000
vt 0.000000 0.625000
vt 0.000000 0.500000
vt 0.000000 0.875000
vt 0.000000 0.750000
vt 0.062500 1.000000
vt 1.000000 0.750000
vt 1.000000 0.875000
vt 0.875000 0.875000
vt 0.875000 0.750000
vt 1.000000 0.125000
vt 1.000000 0.250000
vt 0.875000 0.250000
vt 0.875000 0.125000
vt 1.000000 0.375000
vt 1.000000 0.500000
vt 0.875000 0.500000
vt 0.875000 0.375000
vt 1.000000 0.625000
vt 0.875000 0.625000
vt 0.937500 1.000000
vt 0.937500 0.000000
vt 0.812500 1.000000
vt 0.812500 0.000000
vt 0.000000 0.000000
vt 0.000000 0.000000
vt 0.000000 0.000000
vt 0.000000 0.000000
vt 0.000000 0.000000
vt 0.000000 0.000000
vt 0.000000 0.000000
vt 0.000000 0.000000
vt 0.000000 0.000000
vt 0.000000 0.000000
vt 0.000000 0.000000
vt 0.000000 0.000000
vt 0.000000 0.000000
vt 0.000000 0.000000
vt 0.000000 0.000000
vt 0.000000 0.000000
vt 0.000000 0.000000
vt 0.000000 0.000000
vt 0.000000 0.000000
vt 0.000000 0.000000
vt 0.750000 0.125000
vt 0.625000 0.125000
vt 0.625000 0.250000
vt 0.750000 0.250000
vt 0.750000 0.375000
vt 0.625000 0.375000
vt 0.625000 0.500000
vt 0.750000 0.500000
vt 0.750000 0.625000
vt 0.625000 0.625000
vt 0.625000 0.750000
vt 0.750000 0.750000
vt 0.750000 0.875000
vt 0.625000 0.875000
vt 0.687500 1.000000
vt 0.687500 0.000000
vt 0.562500 0.000000
vt 0.500000 0.125000
vt 0.500000 0.250000
vt 0.500000 0.375000
vt 0.500000 0.500000
vt 0.500000 0.625000
vt 0.500000 0.750000
vt 0.500000 0.875000
vt 0.562500 1.000000
vt 0.375000 0.500000
vt 0.375000 0.625000
vt 0.375000 0.750000
vt 0.375000 0.875000
vt 0.375000 0.125000
vt 0.375000 0.250000
vt 0.375000 0.375000
vt 0.437500 1.000000
vt 0.437500 0.000000
vt 0.250000 0.125000
vt 0.250000 0.250000
vt 0.250000 0.375000
vt 0.250000 0.500000
vt 0.250000 0.625000
vt 0.250000 0.750000
vt 0.250000 0.875000
vt 0.312500 1.000000
vt 0.312500 0.000000
vt 0.125000 0.625000
vt 0.125000 0.750000
vt 0.125000 0.875000
vt 0.187500 1.000000
vt 0.187500 0.000000
vt 0.125000 0.125000
vt 0.125000 0.250000
vt 0.125000 0.375000
vt 0.125000 0.500000
vt 0.062500 0.000000
vt 0.000000 0.125000
vt 0.000000 0.250000
vt 0.000000 0.375000
vt 0.000000 0.500000
vt 0.000000 0.625000
vt 0.000000 0.750000
vt 0.000000 0.875000
vt 0.062500 1.000000
vt 1.000000 0.750000
vt 0.875000 0.750000
vt 0.875000 0.875000
vt 1.000000 0.875000
vt 1.000000 0.125000
vt 0.875000 0.125000
vt 0.875000 0.250000
vt 1.000000 0.250000
vt 1.000000 0.375000
vt 0.875000 0.375000
vt 0.875000 0.500000
vt 1.000000 0.500000
vt 1.000000 0.625000
vt 0.875000 0.625000
vt 0.937500 1.000000
vt 0.937500 0.000000
vt 0.812500 1.000000
vt 0.812500 0.000000
vn 0.0704 0.9975 0.0000
vn 0.0596 0.0000 0.9982
vn 1.0000 0.0000 0.0000
vn 0.0596 0.0000 -0.9982
vn 0.1053 -0.9944 0.0000
vn 0.0000 -0.0024 1.0000
vn 0.0000 0.0024 -1.0000
vn 0.0028 -0.0756 0.9971
vn 0.1812 0.9814 0.0631
vn 0.1622 0.9489 -0.2708
vn 1.0000 0.0001 -0.0055
vn -0.0034 -0.0176 -0.9998
vn 0.0000 0.9727 -0.2321
vn 0.1664 0.9675 -0.1904
vn 0.2719 -0.0032 -0.9623
vn 0.0000 -0.0033 -1.0000
vn 0.1687 0.9819 0.0864
vn 0.0000 0.9960 0.0888
vn 0.0000 0.0039 1.0000
vn 0.9242 0.0013 0.3820
vn 0.0000 -0.9975 0.0706
vn 0.1111 -0.9914 0.0694
vn 0.1114 -0.9935 0.0216
vn 0.0000 -1.0000 -0.0055
vn 0.2243 -0.8103 -0.5414
vn 0.3764 -0.1807 -0.9087
vn 0.3256 0.5253 -0.7862
vn 0.0805 0.9776 -0.1945
vn 0.0805 -0.9776 -0.1945
vn 0.3256 -0.5253 -0.7862
vn 0.3764 0.1807 -0.9087
vn 0.2243 0.8103 -0.5414
vn 0.1945 -0.9776 -0.0805
vn 0.7862 -0.5253 -0.3256
vn 0.9087 0.1807 -0.3764
vn 0.5414 0.8103 -0.2243
vn 0.5414 -0.8103 -0.2243
vn 0.9087 -0.1807 -0.3764
vn 0.7862 0.5253 -0.3256
vn 0.1945 0.9776 -0.0805
vn 0.9087 0.1807 0.3764
vn 0.5414 0.8103 0.2243
vn 0.5414 -0.8103 0.2243
vn 0.9087 -0.1807 0.3764
vn 0.7862 0.5253 0.3256
vn 0.1945 0.9776 0.0805
vn 0.1945 -0.9776 0.0805
vn 0.7862 -0.5253 0.3256
vn 0.2243 -0.8103 0.5414
vn 0.3764 -0.1807 0.9087
vn 0.3256 0.5253 0.7862
vn 0.0805 0.9776 0.1945
vn 0.0805 -0.9776 0.1945
vn 0.3256 -0.5253 0.7862
vn 0.3764 0.1807 0.9087
vn 0.2243 0.8103 0.5414
vn -0.3256 0.5253 0.7862
vn -0.0805 0.9776 0.1945
vn -0.0805 -0.9776 0.1945
vn -0.3256 -0.5253 0.7862
vn -0.3764 0.1807 0.9087
vn -0.2243 0.8103 0.5414
vn -0.2243 -0.8103 0.5414
vn -0.3764 -0.1807 0.9087
vn -0.1945 -0.9776 0.0805
vn -0.7862 -0.5253 0.3256
vn -0.9087 0.1807 0.3764
vn -0.5414 0.8103 0.2243
vn -0.5414 -0.8103 0.2243
vn -0.9087 -0.1807 0.3764
vn -0.7862 0.5253 0.3256
vn -0.1945 0.9776 0.0805
vn -0.5414 0.8103 -0.2243
vn -0.5414 -0.8103 -0.2243
vn -0.9087 -0.1807 -0.3764
vn -0.7862 0.5253 -0.3256
vn -0.1945 0.9776 -0.0805
vn -0.1945 -0.9776 -0.0805
vn -0.7862 -0.5253 -0.3256
vn -0.9087 0.1807 -0.3764
vn -0.2243 -0.8103 -0.5414
vn -0.3764 -0.1807 -0.9087
vn -0.3256 0.5253 -0.7862
vn -0.0805 0.9776 -0.1945
vn -0.0805 -0.9776 -0.1945
vn -0.3256 -0.5253 -0.7862
vn -0.3764 0.1807 -0.9087
vn -0.2243 0.8103 -0.5414
vn -0.0704 0.9975 0.0000
vn -0.0596 0.0000 0.9982
vn -1.0000 0.0000 0.0000
vn -0.0596 0.0000 -0.9982
vn -0.1053 -0.9944 0.0000
vn -0.0028 -0.0756 0.9971
vn -0.1812 0.9814 0.0631
vn -0.1622 0.9489 -0.2708
vn -1.0000 0.0001 -0.0055
vn 0.0034 -0.0176 -0.9998
vn -0.1664 0.9675 -0.1904
vn -0.2719 -0.0032 -0.9623
vn -0.1687 0.9819 0.0864
vn -0.9242 0.0013 0.3820
vn -0.1111 -0.9914 0.0694
vn -0.1114 -0.9935 0.0216
usemtl StarDestroyer
s off
f 114/1/1 112/2/1 20/3/1
f 20/3/1 112/2/1 18/4/1
f 112/2/2 111/5/2 18/4/2
f 18/4/2 111/5/2 17/6/2
f 17/6/3 19/7/3 18/4/3
f 19/7/3 20/3/3 18/4/3
f 19/7/4 113/8/4 20/3/4
f 113/8/4 114/1/4 20/3/4
f 17/6/5 111/5/5 19/7/5
f 113/8/5 19/7/5 111/5/5
f 15/9/3 16/10/3 14/11/3 13/12/3
f 103/13/6 13/12/6 14/11/6 104/14/6
f 105/15/7 106/16/7 16/10/7 15/9/7
f 82/17/8 7/18/8 8/19/8 81/20/8
f 9/21/3 10/22/3 8/19/3 7/18/3
f 81/20/9 8/19/9 10/22/9 79/23/9
f 10/22/10 12/24/10 99/25/10 79/23/10
f 9/21/11 11/26/11 12/24/11 10/22/11
f 11/26/12 100/27/12 99/25/12 12/24/12
f 91/28/13 85/29/13 3/30/13
f 2/31/14 3/30/14 85/29/14
f 2/31/15 4/32/15 3/30/15
f 1/33/15 4/32/15 2/31/15
f 91/28/16 3/30/16 4/32/16 92/34/16
f 2/31/17 85/29/17 5/35/17
f 93/36/18 5/35/18 85/29/18
f 5/35/19 93/36/19 94/37/19 6/38/19
f 2/31/20 5/35/20 6/38/20 1/33/20
f 94/37/21 83/39/21 6/38/21
f 1/33/22 6/38/22 83/39/22
f 4/32/23 1/33/23 83/39/23
f 92/34/24 4/32/24 83/39/24
f 78/40/25 77/41/25 28/42/25 29/43/25
f 76/44/26 21/45/26 26/46/26 27/47/26
f 75/48/27 74/49/27 24/50/27 25/51/27
f 73/52/28 22/53/28 23/54/28
f 37/55/29 78/40/29 29/43/29
f 77/41/30 76/44/30 27/47/30 28/42/30
f 21/45/31 75/48/31 25/51/31 26/46/31
f 74/49/32 73/52/32 23/54/32 24/50/32
f 37/56/33 29/43/33 36/57/33
f 28/42/34 27/47/34 34/58/34 35/59/34
f 26/46/35 25/51/35 32/60/35 33/61/35
f 24/50/36 23/54/36 30/62/36 31/63/36
f 29/43/37 28/42/37 35/59/37 36/57/37
f 27/47/38 26/46/38 33/61/38 34/58/38
f 25/51/39 24/50/39 31/63/39 32/60/39
f 23/54/40 22/64/40 30/62/40
f 33/61/41 32/60/41 40/65/41 41/66/41
f 31/63/42 30/62/42 38/67/42 39/68/42
f 36/57/43 35/59/43 43/69/43 44/70/43
f 34/58/44 33/61/44 41/66/44 42/71/44
f 32/60/45 31/63/45 39/68/45 40/65/45
f 30/62/46 22/72/46 38/67/46
f 37/73/47 36/57/47 44/70/47
f 35/59/48 34/58/48 42/71/48 43/69/48
f 44/70/49 43/69/49 50/74/49 51/75/49
f 42/71/50 41/66/50 48/76/50 49/77/50
f 40/65/51 39/68/51 46/78/51 47/79/51
f 38/67/52 22/80/52 45/81/52
f 37/82/53 44/70/53 51/75/53
f 43/69/54 42/71/54 49/77/54 50/74/54
f 41/66/55 40/65/55 47/79/55 48/76/55
f 39/68/56 38/67/56 45/81/56 46/78/56
f 47/79/57 46/78/57 53/83/57 54/84/57
f 45/81/58 22/85/58 52/86/58
f 37/87/59 51/75/59 58/88/59
f 50/74/60 49/77/60 56/89/60 57/90/60
f 48/76/61 47/79/61 54/84/61 55/91/61
f 46/78/62 45/81/62 52/86/62 53/83/62
f 51/75/63 50/74/63 57/90/63 58/88/63
f 49/77/64 48/76/64 55/91/64 56/89/64
f 37/92/65 58/88/65 65/93/65
f 57/90/66 56/89/66 63/94/66 64/95/66
f 55/91/67 54/84/67 61/96/67 62/97/67
f 53/83/68 52/86/68 59/98/68 60/99/68
f 58/88/69 57/90/69 64/95/69 65/93/69
f 56/89/70 55/91/70 62/97/70 63/94/70
f 54/84/71 53/83/71 60/99/71 61/96/71
f 52/86/72 22/100/72 59/98/72
f 60/101/73 59/102/73 66/103/73 67/104/73
f 65/105/74 64/106/74 71/107/74 72/108/74
f 63/109/75 62/110/75 69/111/75 70/112/75
f 61/113/76 60/101/76 67/104/76 68/114/76
f 59/102/77 22/115/77 66/103/77
f 37/116/78 65/105/78 72/108/78
f 64/106/79 63/109/79 70/112/79 71/107/79
f 62/110/80 61/113/80 68/114/80 69/111/80
f 72/108/81 71/107/81 77/41/81 78/40/81
f 70/112/82 69/111/82 21/45/82 76/44/82
f 68/114/83 67/104/83 74/49/83 75/48/83
f 66/103/84 22/117/84 73/52/84
f 37/118/85 72/108/85 78/40/85
f 71/107/86 70/112/86 76/44/86 77/41/86
f 69/111/87 68/114/87 75/48/87 21/45/87
f 67/104/88 66/103/88 73/52/88 74/49/88
f 114/1/89 118/119/89 112/2/89
f 118/119/89 116/120/89 112/2/89
f 112/2/90 116/120/90 111/5/90
f 116/120/90 115/121/90 111/5/90
f 115/121/91 116/120/91 117/122/91
f 117/122/91 116/120/91 118/119/91
f 117/122/92 118/119/92 113/8/92
f 113/8/92 118/119/92 114/1/92
f 115/121/93 117/122/93 111/5/93
f 113/8/93 111/5/93 117/122/93
f 109/123/91 107/124/91 108/125/91 110/126/91
f 103/13/6 104/14/6 108/125/6 107/124/6
f 105/15/7 109/123/7 110/126/7 106/16/7
f 82/17/94 81/20/94 96/127/94 95/128/94
f 97/129/91 95/128/91 96/127/91 98/130/91
f 81/20/95 79/23/95 98/130/95 96/127/95
f 98/130/96 79/23/96 99/25/96 102/131/96
f 97/129/97 98/130/97 102/131/97 101/132/97
f 101/132/98 102/131/98 99/25/98 100/27/98
f 91/28/13 87/133/13 85/29/13
f 86/134/99 85/29/99 87/133/99
f 86/134/100 87/133/100 88/135/100
f 84/136/100 86/134/100 88/135/100
f 91/28/16 92/34/16 88/135/16 87/133/16
f 86/134/101 89/137/101 85/29/101
f 93/36/18 85/29/18 89/137/18
f 89/137/19 90/138/19 94/37/19 93/36/19
f 86/134/102 84/136/102 90/138/102 89/137/102
f 94/37/21 90/138/21 83/39/21
f 84/136/103 83/39/103 90/138/103
f 88/135/104 83/39/104 84/136/104
f 92/34/24 83/39/24 88/135/24
f 176/139/81 127/140/81 126/141/81 175/142/81
f 174/143/82 125/144/82 124/145/82 119/146/82
f 173/147/83 123/148/83 122/149/83 172/150/83
f 171/151/84 121/152/84 120/153/84
f 135/154/85 127/140/85 176/139/85
f 175/142/86 126/141/86 125/144/86 174/143/86
f 119/146/87 124/145/87 123/148/87 173/147/87
f 172/150/88 122/149/88 121/152/88 171/151/88
f 135/155/78 134/156/78 127/140/78
f 126/141/79 133/157/79 132/158/79 125/144/79
f 124/145/80 131/159/80 130/160/80 123/148/80
f 122/149/73 129/161/73 128/162/73 121/152/73
f 127/140/74 134/156/74 133/157/74 126/141/74
f 125/144/75 132/158/75 131/159/75 124/145/75
f 123/148/76 130/160/76 129/161/76 122/149/76
f 121/152/77 128/162/77 120/163/77
f 131/159/67 139/164/67 138/165/67 130/160/67
f 129/161/68 137/166/68 136/167/68 128/162/68
f 134/156/69 142/168/69 141/169/69 133/157/69
f 132/158/70 140/170/70 139/164/70 131/159/70
f 130/160/71 138/165/71 137/166/71 129/161/71
f 128/162/72 136/167/72 120/171/72
f 135/172/65 142/168/65 134/156/65
f 133/157/66 141/169/66 140/170/66 132/158/66
f 142/168/63 149/173/63 148/174/63 141/169/63
f 140/170/64 147/175/64 146/176/64 139/164/64
f 138/165/57 145/177/57 144/178/57 137/166/57
f 136/167/58 143/179/58 120/180/58
f 135/181/59 149/173/59 142/168/59
f 141/169/60 148/174/60 147/175/60 140/170/60
f 139/164/61 146/176/61 145/177/61 138/165/61
f 137/166/62 144/178/62 143/179/62 136/167/62
f 145/177/51 152/182/51 151/183/51 144/178/51
f 143/179/52 150/184/52 120/185/52
f 135/186/53 156/187/53 149/173/53
f 148/174/54 155/188/54 154/189/54 147/175/54
f 146/176/55 153/190/55 152/182/55 145/177/55
f 144/178/56 151/183/56 150/184/56 143/179/56
f 149/173/49 156/187/49 155/188/49 148/174/49
f 147/175/50 154/189/50 153/190/50 146/176/50
f 135/191/47 163/192/47 156/187/47
f 155/188/48 162/193/48 161/194/48 154/189/48
f 153/190/41 160/195/41 159/196/41 152/182/41
f 151/183/42 158/197/42 157/198/42 150/184/42
f 156/187/43 163/192/43 162/193/43 155/188/43
f 154/189/44 161/194/44 160/195/44 153/190/44
f 152/182/45 159/196/45 158/197/45 151/183/45
f 150/184/46 157/198/46 120/199/46
f 158/200/36 165/201/36 164/202/36 157/203/36
f 163/204/37 170/205/37 169/206/37 162/207/37
f 161/208/38 168/209/38 167/210/38 160/211/38
f 159/212/39 166/213/39 165/201/39 158/200/39
f 157/203/40 164/202/40 120/214/40
f 135/215/33 170/205/33 163/204/33
f 162/207/34 169/206/34 168/209/34 161/208/34
f 160/211/35 167/210/35 166/213/35 159/212/35
f 170/205/25 176/139/25 175/142/25 169/206/25
f 168/209/26 174/143/26 119/146/26 167/210/26
f 166/213/27 173/147/27 172/150/27 165/201/27
f 164/202/28 171/151/28 120/216/28
f 135/217/29 176/139/29 170/205/29
f 169/206/30 175/142/30 174/143/30 168/209/30
f 167/210/31 119/146/31 173/147/31 166/213/31
f 165/201/32 172/150/32 171/151/32 164/202/32
l 80 82
l 9 80
l 85 83
l 79 80
l 100 80
l 105 103
l 104 106
l 97 80
